<svg width="18" height="16" viewBox="0 0 18 16" fill="none" xmlns="http://www.w3.org/2000/svg">
<path d="M7.49325 14.6295C7.49325 14.8679 7.42256 15.1009 7.29011 15.2992C7.15767 15.4974 6.96941 15.6519 6.74916 15.7431C6.52891 15.8343 6.28656 15.8582 6.05274 15.8117C5.81892 15.7652 5.60415 15.6504 5.43558 15.4818C5.26701 15.3133 5.15221 15.0985 5.1057 14.8647C5.05919 14.6308 5.08306 14.3885 5.17429 14.1682C5.26552 13.948 5.42001 13.7597 5.61823 13.6273C5.81645 13.4948 6.0495 13.4242 6.28789 13.4242C6.60757 13.4242 6.91416 13.5511 7.14021 13.7772C7.36626 14.0032 7.49325 14.3098 7.49325 14.6295ZM14.1227 13.4242C13.8843 13.4242 13.6513 13.4948 13.4531 13.6273C13.2548 13.7597 13.1003 13.948 13.0091 14.1682C12.9179 14.3885 12.894 14.6308 12.9405 14.8647C12.987 15.0985 13.1018 15.3133 13.2704 15.4818C13.439 15.6504 13.6537 15.7652 13.8876 15.8117C14.1214 15.8582 14.3637 15.8343 14.584 15.7431C14.8042 15.6519 14.9925 15.4974 15.1249 15.2992C15.2574 15.1009 15.3281 14.8679 15.3281 14.6295C15.3281 14.3098 15.2011 14.0032 14.975 13.7772C14.749 13.5511 14.4424 13.4242 14.1227 13.4242ZM17.7124 3.95833L15.5631 10.9426C15.4505 11.3129 15.2216 11.637 14.9103 11.8668C14.599 12.0967 14.2219 12.2201 13.8349 12.2188H6.59451C6.20199 12.2173 5.82052 12.0887 5.50721 11.8523C5.19389 11.6158 4.96561 11.2843 4.85653 10.9072L2.13092 1.37058H0.863787C0.703947 1.37058 0.550653 1.30708 0.437629 1.19406C0.324605 1.08103 0.261108 0.927741 0.261108 0.767901C0.261108 0.60806 0.324605 0.454767 0.437629 0.341743C0.550653 0.228718 0.703947 0.165222 0.863787 0.165222H2.13092C2.39264 0.16609 2.64704 0.251698 2.85604 0.40923C3.06504 0.566762 3.21741 0.787746 3.29032 1.03911L3.90129 3.17861H17.1361C17.2304 3.17858 17.3234 3.20068 17.4076 3.24314C17.4919 3.28559 17.5649 3.34722 17.621 3.42307C17.677 3.49891 17.7145 3.58685 17.7304 3.67982C17.7463 3.77278 17.7401 3.86818 17.7124 3.95833ZM16.3202 4.38397H4.24557L6.01518 10.5765C6.05118 10.7024 6.12719 10.8131 6.23172 10.8919C6.33624 10.9708 6.46359 11.0134 6.59451 11.0134H13.8349C13.9639 11.0135 14.0895 10.9722 14.1932 10.8955C14.2969 10.8189 14.3734 10.7111 14.4112 10.5878L16.3202 4.38397Z" fill="white"/>
</svg>
