<svg width="30" height="30" viewBox="0 0 30 30" fill="none" xmlns="http://www.w3.org/2000/svg">
<path d="M20.6249 4.19995C18.3018 4.19995 16.2678 5.19895 14.9999 6.88758C13.732 5.19895 11.698 4.19995 9.3749 4.19995C7.52566 4.20204 5.75275 4.93757 4.44513 6.24518C3.13752 7.5528 2.40199 9.32571 2.3999 11.175C2.3999 19.05 14.0763 25.4242 14.5735 25.6875C14.7046 25.758 14.8511 25.7949 14.9999 25.7949C15.1487 25.7949 15.2952 25.758 15.4263 25.6875C15.9235 25.4242 27.5999 19.05 27.5999 11.175C27.5978 9.32571 26.8623 7.5528 25.5547 6.24518C24.2471 4.93757 22.4741 4.20204 20.6249 4.19995ZM14.9999 23.865C12.9457 22.668 4.1999 17.2151 4.1999 11.175C4.20169 9.803 4.74748 8.48776 5.7176 7.51765C6.68771 6.54753 8.00296 6.00174 9.3749 5.99995C11.563 5.99995 13.4002 7.16545 14.1674 9.03745C14.2352 9.20252 14.3506 9.34371 14.4988 9.44307C14.647 9.54243 14.8214 9.59548 14.9999 9.59548C15.1784 9.59548 15.3528 9.54243 15.501 9.44307C15.6492 9.34371 15.7646 9.20252 15.8324 9.03745C16.5997 7.16208 18.4368 5.99995 20.6249 5.99995C21.9969 6.00174 23.3121 6.54753 24.2822 7.51765C25.2523 8.48776 25.7981 9.803 25.7999 11.175C25.7999 17.2061 17.0519 22.6668 14.9999 23.865Z" fill="white"/>
</svg>
